# xmcd
#
# Track frame offsets: 
#        150
#        15975
#        35738
#        51963
#        66096
#        76238
#        99575
#        119397
#        152222
#        176585
#        194209
#        207421
#        219956
#        235784
#
# Disc length: 3309 seconds
#
# Revision: 0
# Processed by: cddbd v1.5PL3 Copyright (c) Steve Scherf et al.
# Submitted via: ExactAudioCopy v0.95a5
#
DISCID=c20ceb0e
DTITLE=The Moron Brothers - Off The Wall
DYEAR=1999
DGENRE=Bluegrass
TTITLE0=Black My Blue Eyes
TTITLE1=Ignorant But Happy
TTITLE2=Tribute To Merle Travis
TTITLE3=I Hate Snakes
TTITLE4=Where Did My Little Girl Go
TTITLE5=Juicy Romance
TTITLE6=Electric Fence
TTITLE7=Hoss Walker
TTITLE8=Best Christmas
TTITLE9=Trigger Happy Ed
TTITLE10=Mamma
TTITLE11=Lost Indian
TTITLE12=If My Nose Was Runnin Money
TTITLE13=Sticky Situation
EXTD=
EXTT0=
EXTT1=
EXTT2=
EXTT3=
EXTT4=
EXTT5=
EXTT6=
EXTT7=
EXTT8=
EXTT9=
EXTT10=
EXTT11=
EXTT12=
EXTT13=
PLAYORDER=
